HIERARCHY
ROOT mixamorig:Hips
{
	OFFSET 0.000000 201.639420 0.000000
	CHANNELS 6 Xposition Yposition Zposition Xrotation Yrotation Zrotation
	JOINT mixamorig:Spine
	{
		OFFSET 0.006200 19.524994 -2.481800
		CHANNELS 3 Xrotation Yrotation Zrotation
		JOINT mixamorig:Spine1
		{
			OFFSET -0.000900 22.835007 -2.825400
			CHANNELS 3 Xrotation Yrotation Zrotation
			JOINT mixamorig:Spine2
			{
				OFFSET -0.020600 26.552490 -3.193300
				CHANNELS 3 Xrotation Yrotation Zrotation
				JOINT mixamorig:Neck
				{
					OFFSET -0.060000 30.701813 1.352200
					CHANNELS 3 Xrotation Yrotation Zrotation
					JOINT mixamorig:Head
					{
						OFFSET -0.087200 22.547607 3.670900
						CHANNELS 3 Xrotation Yrotation Zrotation
						JOINT mixamorig:HeadTop_End
						{
							OFFSET -0.830600 40.355194 7.893500
							CHANNELS 3 Xrotation Yrotation Zrotation
							End Site
							{
								OFFSET 0.000000 30.592346 0.000000
							}
						}
						JOINT mixamorig:RightEye
						{
							OFFSET -6.302100 18.118591 16.197100
							CHANNELS 3 Xrotation Yrotation Zrotation
							End Site
							{
								OFFSET 0.000000 30.592346 0.000000
							}
						}
						JOINT mixamorig:LeftEye
						{
							OFFSET 6.741500 18.382690 16.401899
							CHANNELS 3 Xrotation Yrotation Zrotation
							End Site
							{
								OFFSET 0.000000 30.592346 0.000000
							}
						}
					}
				}
				JOINT mixamorig:LeftShoulder
				{
					OFFSET 11.924900 18.230499 1.425400
					CHANNELS 3 Xrotation Yrotation Zrotation
					JOINT mixamorig:LeftArm
					{
						OFFSET 25.435989 -0.697632 -5.229300
						CHANNELS 3 Xrotation Yrotation Zrotation
						JOINT mixamorig:LeftForeArm
						{
							OFFSET 54.684776 0.000000 0.000000
							CHANNELS 3 Xrotation Yrotation Zrotation
							JOINT mixamorig:LeftHand
							{
								OFFSET 55.098175 0.000000 0.000000
								CHANNELS 3 Xrotation Yrotation Zrotation
								JOINT mixamorig:LeftHandMiddle1
								{
									OFFSET 23.369751 0.000000 0.000000
									CHANNELS 3 Xrotation Yrotation Zrotation
									JOINT mixamorig:LeftHandMiddle2
									{
										OFFSET 6.378677 0.000000 0.000000
										CHANNELS 3 Xrotation Yrotation Zrotation
										JOINT mixamorig:LeftHandMiddle3
										{
											OFFSET 6.148331 0.000000 0.000000
											CHANNELS 3 Xrotation Yrotation Zrotation
											JOINT mixamorig:LeftHandMiddle4
											{
												OFFSET 6.582504 0.000000 0.000000
												CHANNELS 3 Xrotation Yrotation Zrotation
												End Site
												{
													OFFSET -1.168900 6.395691 1.028606
												}
											}
										}
									}
								}
								JOINT mixamorig:LeftHandThumb1
								{
									OFFSET 7.235672 -3.848206 5.434273
									CHANNELS 3 Xrotation Yrotation Zrotation
									JOINT mixamorig:LeftHandThumb2
									{
										OFFSET 6.568451 -3.792297 3.792300
										CHANNELS 3 Xrotation Yrotation Zrotation
										JOINT mixamorig:LeftHandThumb3
										{
											OFFSET 6.063080 -3.500519 3.500518
											CHANNELS 3 Xrotation Yrotation Zrotation
											JOINT mixamorig:LeftHandThumb4
											{
												OFFSET 4.793182 -2.767334 2.767349
												CHANNELS 3 Xrotation Yrotation Zrotation
												End Site
												{
													OFFSET 0.101639 6.054260 1.275483
												}
											}
										}
									}
								}
								JOINT mixamorig:LeftHandIndex1
								{
									OFFSET 23.101074 -0.309540 4.992809
									CHANNELS 3 Xrotation Yrotation Zrotation
									JOINT mixamorig:LeftHandIndex2
									{
										OFFSET 6.226883 0.000000 0.000000
										CHANNELS 3 Xrotation Yrotation Zrotation
										JOINT mixamorig:LeftHandIndex3
										{
											OFFSET 6.094330 0.000000 0.000000
											CHANNELS 3 Xrotation Yrotation Zrotation
											JOINT mixamorig:LeftHandIndex4
											{
												OFFSET 5.482605 0.000000 0.000000
												CHANNELS 3 Xrotation Yrotation Zrotation
												End Site
												{
													OFFSET -1.427902 5.233032 0.797164
												}
											}
										}
									}
								}
								JOINT mixamorig:LeftHandRing1
								{
									OFFSET 22.299240 0.021149 -3.964172
									CHANNELS 3 Xrotation Yrotation Zrotation
									JOINT mixamorig:LeftHandRing2
									{
										OFFSET 6.321869 0.000000 0.000000
										CHANNELS 3 Xrotation Yrotation Zrotation
										JOINT mixamorig:LeftHandRing3
										{
											OFFSET 5.899796 0.000000 0.000000
											CHANNELS 3 Xrotation Yrotation Zrotation
											JOINT mixamorig:LeftHandRing4
											{
												OFFSET 6.517899 0.000000 0.000000
												CHANNELS 3 Xrotation Yrotation Zrotation
												End Site
												{
													OFFSET -1.637299 6.232208 0.980890
												}
											}
										}
									}
								}
								JOINT mixamorig:LeftHandPinky1
								{
									OFFSET 20.463791 -0.302338 -8.562233
									CHANNELS 3 Xrotation Yrotation Zrotation
									JOINT mixamorig:LeftHandPinky2
									{
										OFFSET 6.908646 0.000000 0.000000
										CHANNELS 3 Xrotation Yrotation Zrotation
										JOINT mixamorig:LeftHandPinky3
										{
											OFFSET 4.622849 0.000000 0.000000
											CHANNELS 3 Xrotation Yrotation Zrotation
											JOINT mixamorig:LeftHandPinky4
											{
												OFFSET 5.216080 0.000000 0.000000
												CHANNELS 3 Xrotation Yrotation Zrotation
												End Site
												{
													OFFSET -0.606308 5.116241 0.814926
												}
											}
										}
									}
								}
							}
						}
					}
				}
				JOINT mixamorig:RightShoulder
				{
					OFFSET -12.001300 18.284088 1.348900
					CHANNELS 3 Xrotation Yrotation Zrotation
					JOINT mixamorig:RightArm
					{
						OFFSET -25.308500 -0.751312 -5.164599
						CHANNELS 3 Xrotation Yrotation Zrotation
						JOINT mixamorig:RightForeArm
						{
							OFFSET -54.684429 0.000000 0.000000
							CHANNELS 3 Xrotation Yrotation Zrotation
							JOINT mixamorig:RightHand
							{
								OFFSET -55.150291 0.000000 0.000000
								CHANNELS 3 Xrotation Yrotation Zrotation
								JOINT mixamorig:RightHandMiddle1
								{
									OFFSET -23.317566 0.000000 0.000000
									CHANNELS 3 Xrotation Yrotation Zrotation
									JOINT mixamorig:RightHandMiddle2
									{
										OFFSET -6.378403 0.000000 0.000000
										CHANNELS 3 Xrotation Yrotation Zrotation
										JOINT mixamorig:RightHandMiddle3
										{
											OFFSET -6.148193 0.000000 0.000000
											CHANNELS 3 Xrotation Yrotation Zrotation
											JOINT mixamorig:RightHandMiddle4
											{
												OFFSET -6.583389 0.000000 0.000000
												CHANNELS 3 Xrotation Yrotation Zrotation
												End Site
												{
													OFFSET 1.171692 6.395905 1.029786
												}
											}
										}
									}
								}
								JOINT mixamorig:RightHandThumb1
								{
									OFFSET -7.190521 -3.860474 5.435846
									CHANNELS 3 Xrotation Yrotation Zrotation
									JOINT mixamorig:RightHandThumb2
									{
										OFFSET -6.567429 -3.791718 3.791708
										CHANNELS 3 Xrotation Yrotation Zrotation
										JOINT mixamorig:RightHandThumb3
										{
											OFFSET -6.062469 -3.500153 3.500166
											CHANNELS 3 Xrotation Yrotation Zrotation
											JOINT mixamorig:RightHandThumb4
											{
												OFFSET -4.792618 -2.767029 2.767022
												CHANNELS 3 Xrotation Yrotation Zrotation
												End Site
												{
													OFFSET -0.100327 6.053253 1.276754
												}
											}
										}
									}
								}
								JOINT mixamorig:RightHandIndex1
								{
									OFFSET -23.048981 -0.310791 4.992554
									CHANNELS 3 Xrotation Yrotation Zrotation
									JOINT mixamorig:RightHandIndex2
									{
										OFFSET -6.227539 0.000000 0.000000
										CHANNELS 3 Xrotation Yrotation Zrotation
										JOINT mixamorig:RightHandIndex3
										{
											OFFSET -6.095047 0.000000 0.000000
											CHANNELS 3 Xrotation Yrotation Zrotation
											JOINT mixamorig:RightHandIndex4
											{
												OFFSET -5.484772 0.000000 0.000000
												CHANNELS 3 Xrotation Yrotation Zrotation
												End Site
												{
													OFFSET 1.420593 5.237305 0.797056
												}
											}
										}
									}
								}
								JOINT mixamorig:RightHandRing1
								{
									OFFSET -22.246323 0.020569 -3.963762
									CHANNELS 3 Xrotation Yrotation Zrotation
									JOINT mixamorig:RightHandRing2
									{
										OFFSET -6.322128 0.000000 0.000000
										CHANNELS 3 Xrotation Yrotation Zrotation
										JOINT mixamorig:RightHandRing3
										{
											OFFSET -5.900024 0.000000 0.000000
											CHANNELS 3 Xrotation Yrotation Zrotation
											JOINT mixamorig:RightHandRing4
											{
												OFFSET -6.518356 0.000000 0.000000
												CHANNELS 3 Xrotation Yrotation Zrotation
												End Site
												{
													OFFSET 1.636398 6.232697 0.982186
												}
											}
										}
									}
								}
								JOINT mixamorig:RightHandPinky1
								{
									OFFSET -20.411011 -0.303314 -8.561701
									CHANNELS 3 Xrotation Yrotation Zrotation
									JOINT mixamorig:RightHandPinky2
									{
										OFFSET -6.907349 0.000000 0.000000
										CHANNELS 3 Xrotation Yrotation Zrotation
										JOINT mixamorig:RightHandPinky3
										{
											OFFSET -4.623840 0.000000 0.000000
											CHANNELS 3 Xrotation Yrotation Zrotation
											JOINT mixamorig:RightHandPinky4
											{
												OFFSET -5.218353 0.000000 0.000000
												CHANNELS 3 Xrotation Yrotation Zrotation
												End Site
												{
													OFFSET 0.602097 5.118835 0.816273
												}
											}
										}
									}
								}
							}
						}
					}
				}
			}
		}
	}
	JOINT mixamorig:LeftUpLeg
	{
		OFFSET 18.168400 -13.561905 -0.039000
		CHANNELS 3 Xrotation Yrotation Zrotation
		JOINT mixamorig:LeftLeg
		{
			OFFSET 0.577358 -80.825211 -3.695000
			CHANNELS 3 Xrotation Yrotation Zrotation
			JOINT mixamorig:LeftFoot
			{
				OFFSET -0.577356 -83.370262 -6.520700
				CHANNELS 3 Xrotation Yrotation Zrotation
				JOINT mixamorig:LeftToeBase
				{
					OFFSET 0.750401 -20.798306 25.135401
					CHANNELS 3 Xrotation Yrotation Zrotation
					JOINT mixamorig:LeftToe_End
					{
						OFFSET -0.000500 0.001200 19.917799
						CHANNELS 3 Xrotation Yrotation Zrotation
						End Site
						{
							OFFSET 0.000000 19.917805 0.000000
						}
					}
				}
			}
		}
	}
	JOINT mixamorig:RightUpLeg
	{
		OFFSET -18.162500 -13.585098 -0.041000
		CHANNELS 3 Xrotation Yrotation Zrotation
		JOINT mixamorig:RightLeg
		{
			OFFSET -0.595024 -80.945297 -3.631900
			CHANNELS 3 Xrotation Yrotation Zrotation
			JOINT mixamorig:RightFoot
			{
				OFFSET 0.595024 -83.218193 -6.561200
				CHANNELS 3 Xrotation Yrotation Zrotation
				JOINT mixamorig:RightToeBase
				{
					OFFSET -0.753601 -20.807106 25.115000
					CHANNELS 3 Xrotation Yrotation Zrotation
					JOINT mixamorig:RightToe_End
					{
						OFFSET 0.000299 0.001700 19.918200
						CHANNELS 3 Xrotation Yrotation Zrotation
						End Site
						{
							OFFSET 0.000000 19.918203 0.000000
						}
					}
				}
			}
		}
	}
}
MOTION
Frames: 4
Frame Time: 0.033333
29.785458 447.745667 -78.317139 18.300583 -18.645353 14.045557 18.323835 1.106596 0.922469 4.958704 0.364334 -0.325350 4.962519 0.340878 -0.289584 20.607314 -0.746506 3.959365 15.038769 0.318714 -8.807520 0.000001 0.000000 -0.000000 0.000001 0.000000 -0.000000 0.000001 0.000000 -0.000000 3.701404 6.627976 7.547578 -23.029841 -13.836622 -65.167142 0.000138 -84.488306 0.000103 41.675086 -3.967259 -6.162910 2.024332 4.880464 -45.098861 3.581693 6.041897 -61.289576 0.192482 1.619858 -13.552313 -0.000000 -0.000000 -0.000004 7.378471 -14.437297 34.206472 16.321519 42.002918 -18.075175 18.107158 67.043238 3.186318 -0.000001 -0.000000 0.000001 2.985763 5.774371 -47.141703 2.589771 5.384109 -51.349984 1.301808 4.033952 -35.758745 0.000000 0.000001 -0.000003 0.013828 2.197854 -35.091333 4.853535 6.577046 -72.823566 1.007536 3.591110 -31.335112 -0.000000 -0.000000 0.000002 -0.181094 2.032981 -36.570404 2.212289 0.972352 -47.347575 1.139673 3.799230 -33.385247 -0.000004 -0.000001 0.000001 19.899367 24.319628 -37.497851 -45.489647 -35.226168 61.698246 -0.000660 95.052102 0.000609 58.552459 10.690276 -0.524904 2.045262 -4.929321 45.111637 3.614698 -6.099810 61.270635 0.194330 -1.635588 13.550489 0.000001 -0.000000 0.000001 9.827714 12.104453 -49.972642 17.693491 -42.477927 19.106843 16.269941 -65.367929 -4.238536 0.000001 0.000001 0.000000 3.007197 -5.823714 47.137680 2.614802 -5.436506 51.346616 1.314348 -4.073168 35.755289 -0.000000 -0.000001 0.000007 0.025805 -2.236174 35.089571 4.900742 -6.641136 72.822138 1.017212 -3.625983 31.331857 -0.000001 -0.000000 -0.000001 -2.597222 1.173211 37.064701 2.214858 -5.092353 46.989499 1.150617 -3.836112 33.381757 0.000000 0.000000 0.000002 -56.760781 17.048987 -1.785997 33.363350 3.790645 -0.839341 25.304041 -2.174033 -19.835079 -6.213302 -0.000003 -0.000002 -0.000000 0.000000 -0.000000 -113.594987 8.169341 -3.802415 88.458033 9.325540 0.714372 -11.114193 2.355703 19.291519 -31.631928 -0.000000 -0.000004 0.000002 0.000000 -0.000000 
30.587273 458.693176 -73.703644 25.143970 -19.543029 14.031371 18.175670 1.193659 1.138600 4.977640 0.328293 -0.331566 4.981494 0.303924 -0.292246 21.109483 -0.342123 1.890724 11.209840 2.459734 -10.352776 -0.000000 0.000000 -0.000000 -0.000000 0.000000 -0.000000 -0.000000 0.000000 -0.000000 3.479315 9.847007 6.262010 -18.912676 -18.213804 -64.106701 -0.000681 -87.320717 -0.000718 41.675086 -3.967267 -6.162920 2.024333 4.880464 -45.098868 3.581690 6.041896 -61.289576 0.192486 1.619857 -13.552309 0.000001 0.000001 -0.000000 7.378473 -14.437299 34.206479 16.321517 42.002918 -18.075172 18.107166 67.043238 3.186318 -0.000001 0.000002 0.000001 2.985766 5.774374 -47.141703 2.589769 5.384108 -51.349987 1.301806 4.033952 -35.758745 -0.000000 0.000000 0.000000 0.013827 2.197855 -35.091333 4.853537 6.577048 -72.823573 1.007538 3.591115 -31.335105 -0.000000 0.000003 -0.000001 -0.181094 2.032983 -36.570404 2.212295 0.972353 -47.347571 1.139674 3.799228 -33.385247 -0.000001 0.000001 -0.000001 13.755814 20.632383 -34.193040 -39.011254 -29.167804 68.626373 -0.001094 94.606084 0.001116 60.687474 12.165014 -7.720504 2.045289 -4.929359 45.112170 3.614771 -6.099823 61.271127 0.194317 -1.635579 13.550499 0.000002 -0.000000 -0.000001 9.827992 12.104515 -49.973089 17.693397 -42.478497 19.106614 16.270206 -65.368585 -4.238452 -0.000002 -0.000001 -0.000001 3.007380 -5.823862 47.138148 2.614857 -5.436548 51.347071 1.314369 -4.073194 35.755596 -0.000000 -0.000000 0.000001 0.025682 -2.236009 35.089848 4.900828 -6.641132 72.822760 1.017227 -3.626024 31.332134 0.000001 -0.000000 -0.000002 -2.597483 1.173579 37.064804 2.214882 -5.092395 46.989827 1.150629 -3.836130 33.381921 0.000000 -0.000000 0.000000 -59.189306 16.983101 0.631372 35.298783 3.183456 -1.306483 22.539464 -2.853191 -19.270339 -3.089318 -0.000000 0.000008 0.000003 0.000001 0.000000 -110.450989 5.199336 -3.688070 80.243173 9.322570 0.686984 -11.398075 2.878433 18.435256 -31.376079 0.000005 -0.000003 -0.000002 -0.000000 0.000000 
30.623928 468.001160 -68.490356 30.944582 -19.554630 13.578840 18.104683 1.325202 1.408344 4.978959 0.285647 -0.346298 4.982656 0.259683 -0.303368 20.930898 -0.107230 0.000911 7.680860 3.949997 -11.543236 -0.000001 0.000000 -0.000000 -0.000001 0.000000 -0.000000 -0.000001 0.000000 -0.000000 3.106332 13.572104 5.234214 -16.007387 -24.733174 -62.411782 0.000094 -88.104461 0.000031 41.675086 -3.967261 -6.162914 2.024330 4.880467 -45.098861 3.581691 6.041898 -61.289576 0.192487 1.619858 -13.552312 -0.000000 0.000000 0.000002 7.378472 -14.437294 34.206475 16.321519 42.002911 -18.075175 18.107158 67.043238 3.186321 -0.000001 -0.000002 0.000003 2.985766 5.774373 -47.141706 2.589770 5.384109 -51.349984 1.301807 4.033952 -35.758745 -0.000000 0.000000 -0.000000 0.013830 2.197854 -35.091333 4.853539 6.577049 -72.823566 1.007538 3.591111 -31.335112 -0.000002 -0.000003 0.000001 -0.181090 2.032982 -36.570400 2.212295 0.972351 -47.347571 1.139674 3.799231 -33.385251 0.000000 0.000003 0.000001 8.354198 16.689600 -27.039160 -35.886671 -20.107636 68.643524 0.000193 94.118272 -0.000281 61.771643 12.327680 -13.150800 2.045249 -4.929320 45.109998 3.614551 -6.099709 61.269181 0.194331 -1.635567 13.550396 0.000003 -0.000000 -0.000001 9.826941 12.104325 -49.971303 17.693778 -42.476369 19.107704 16.269072 -65.365942 -4.238936 -0.000001 0.000002 0.000001 3.006668 -5.823267 47.136310 2.614684 -5.436405 51.345285 1.314303 -4.073085 35.754377 0.000001 0.000000 -0.000002 0.026170 -2.236643 35.088775 4.900515 -6.641059 72.820226 1.017167 -3.625934 31.331041 -0.000001 -0.000000 0.000004 -2.596473 1.172263 37.064390 2.214767 -5.092287 46.988635 1.150581 -3.836079 33.381221 0.000000 0.000000 0.000003 -59.185584 16.602498 2.830341 35.724198 3.711501 -2.121861 22.633425 -3.097694 -18.998791 -2.368512 -0.000002 -0.000000 -0.000003 -0.000000 -0.000001 -107.558971 3.117928 -3.245909 72.782264 9.375556 0.617762 -11.559871 2.520680 17.442876 -30.804922 -0.000004 0.000001 0.000004 -0.000002 -0.000001 
29.901070 475.898254 -62.870239 35.315626 -18.961601 12.818686 18.012097 1.399989 1.658924 4.974365 0.226217 -0.341440 4.977297 0.200138 -0.293659 20.436355 0.032569 -1.911543 4.572599 4.351569 -11.499460 0.000000 0.000000 0.000000 0.000000 0.000000 0.000000 0.000000 0.000000 0.000000 2.683406 16.818965 4.455178 -13.478887 -32.136757 -60.167396 0.000296 -86.595044 0.000259 41.675089 -3.967260 -6.162917 2.024330 4.880467 -45.098865 3.581693 6.041896 -61.289576 0.192485 1.619860 -13.552309 -0.000000 -0.000002 -0.000001 7.378472 -14.437294 34.206475 16.321521 42.002911 -18.075172 18.107144 67.043238 3.186323 0.000004 -0.000001 0.000001 2.985765 5.774373 -47.141699 2.589773 5.384107 -51.349984 1.301809 4.033953 -35.758748 -0.000001 -0.000001 -0.000001 0.013826 2.197856 -35.091326 4.853541 6.577047 -72.823566 1.007535 3.591112 -31.335112 -0.000001 0.000002 0.000002 -0.181093 2.032982 -36.570400 2.212292 0.972355 -47.347578 1.139672 3.799228 -33.385247 -0.000001 0.000001 0.000000 5.053248 13.510651 -18.044453 -34.442199 -11.165949 64.088334 -0.002163 93.558709 0.002070 61.746003 11.653342 -17.241923 2.045189 -4.929245 45.106757 3.614246 -6.099563 61.266319 0.194322 -1.635528 13.550240 0.000001 -0.000000 0.000001 9.825325 12.104012 -49.968687 17.694350 -42.473101 19.109256 16.267397 -65.362028 -4.239664 0.000001 -0.000001 -0.000001 3.005603 -5.822359 47.133575 2.614441 -5.436203 51.342648 1.314159 -4.072903 35.752588 -0.000001 0.000000 -0.000003 0.026905 -2.237589 35.087160 4.900096 -6.640924 72.816469 1.017059 -3.625732 31.329449 -0.000000 -0.000000 0.000004 -2.594950 1.170301 37.063786 2.214620 -5.092142 46.986852 1.150515 -3.835960 33.380190 0.000001 -0.000000 0.000002 -57.454131 15.797669 4.576496 35.732787 4.601556 -2.206776 24.555073 -3.127918 -18.900166 -2.422910 0.000004 0.000006 -0.000003 -0.000001 -0.000001 -104.608158 1.966800 -2.672194 66.524888 9.499820 0.523803 -11.973673 1.445529 16.029090 -30.221135 0.000002 -0.000003 -0.000002 -0.000001 -0.000001 
